<?xml version="1.0" standalone="no"?>
<!DOCTYPE svg PUBLIC "-//W3C//DTD SVG 20010904//EN"
 "http://www.w3.org/TR/2001/REC-SVG-20010904/DTD/svg10.dtd">
<svg version="1.0" xmlns="http://www.w3.org/2000/svg"
 width="700.000000pt" height="700.000000pt" viewBox="0 0 700.000000 700.000000"
 preserveAspectRatio="xMidYMid meet">
<metadata>
Created by potrace 1.14, written by Peter Selinger 2001-2017
</metadata>
<g transform="translate(0.000000,700.000000) scale(0.100000,-0.100000)"
fill="#000000" stroke="none">
<path d="M0 3500 l0 -3500 3500 0 3500 0 0 3500 0 3500 -3500 0 -3500 0 0
-3500z m6020 3080 l0 -350 -1977 -2 -1978 -3 -88 -28 c-306 -96 -512 -296
-613 -597 l-29 -85 -3 -2372 -2 -2373 2345 0 2345 0 0 -350 0 -350 -2695 0
-2695 0 3 2752 2 2753 29 115 c33 135 76 250 139 375 237 469 705 793 1234
854 37 5 949 9 2026 10 l1957 1 0 -350z m30 -1990 c0 -836 0 -839 -61 -987
-75 -180 -242 -347 -422 -421 -154 -64 -99 -62 -1492 -62 l-1265 0 0 -910 0
-910 -235 0 -235 0 0 1140 0 1140 1493 2 c1713 3 1544 -7 1653 102 102 102 98
76 102 679 l3 517 -1621 0 -1620 0 0 235 0 235 1850 0 1850 0 0 -760z"/>
</g>
</svg>
